# AST/ASF file generated using VICON BodyLanguage
# -----------------------------------------------
:version 1.10
:name VICON
:units
  mass 1.0
  length 0.45
  angle deg
:documentation
   .ast/.asf automatically generated from VICON data using
   VICON BodyBuilder and BodyLanguage model FoxedUp or BRILLIANT.MOD
:root
   order TX TY TZ RX RY RZ
   axis XYZ
   position 0 0 0  
   orientation 0 0 0 
:bonedata
  begin
     id 1 
     name lhipjoint
     direction 0.822369 -0.411937 0.392449 
     length 3.8167 
     axis 0 0 0  XYZ
  end
  begin
     id 2 
     name lfemur
     direction 0.34202 -0.939693 0  
     length 6.16791  
     axis 0 0 20  XYZ
    dof rx ry rz
    limits (-160.0 20.0)
           (-70.0 70.0)
           (-60.0 70.0)
  end
  begin
     id 3 
     name ltibia
     direction 0.34202 -0.939693 0   
     length 7.07101   
     axis 0 0 20   XYZ
    dof rx
    limits (-10.0 170.0)
  end
  begin
     id 4 
     name lfoot
     direction 0.028254 -0.0776273 0.996582   
     length 1.66799   
     axis -90 7.62852e-016 20   XYZ
    dof rx rz
    limits (-45.0 90.0)
           (-70.0 20.0)
  end
  begin
     id 5 
     name ltoes
     direction 1.53483e-011 -4.21688e-011 1   
     length 0.851674   
     axis -90 7.62852e-016 20   XYZ
    dof rx
    limits (-90.0 20.0)
  end
  begin
     id 6 
     name rhipjoint
     direction -0.822466 -0.411836 0.392353   
     length 3.81764  
     axis 0 0 0  XYZ 
  end
  begin
     id 7 
     name rfemur
     direction -0.34202 -0.939693 0   
     length 6.28636   
     axis 0 0 -20   XYZ
    dof rx ry rz
    limits (-160.0 20.0)
           (-70.0 70.0)
           (-70.0 60.0)
  end
  begin
     id 8 
     name rtibia
     direction -0.34202 -0.939693 0   
     length 6.85621   
     axis 0 0 -20   XYZ
    dof rx
    limits (-10.0 170.0)
 end
 begin
     id 9 
     name rfoot
     direction -0.0553036 -0.151945 0.98684   
     length 1.57293  
     axis -90 -7.62852e-016 -20   XYZ
    dof rx rz
    limits (-45.0 90.0)
           (-20.0 70.0)
  end
  begin
     id 10 
     name rtoes
     direction -1.53592e-011 -4.21964e-011 1   
     length 0.802812   
     axis -90 -7.62852e-016 -20   XYZ
    dof rx
    limits (-90.0 20.0)
  end
  begin
     id 11 
     name lowerback
     direction 0.00654913 0.996475 -0.0836396   
     length 1.97212   
     axis 0 0 0   XYZ
    dof rx ry rz
    limits (-20.0 45.0)
           (-30.0 30.0)
           (-30.0 30.0)
  end
  begin
     id 12 
     name upperback
     direction 0.0111875 0.994527 0.103877   
     length 1.89704   
     axis 0 0 0   XYZ
    dof rx ry rz
    limits (-20.0 45.0)
           (-30.0 30.0)
           (-30.0 30.0)
  end
  begin
     id 13 
     name thorax
     direction 0.00473652 0.989004 0.147814   
     length 1.94516   
     axis 0 0 0   XYZ
    dof rx ry rz
    limits (-20.0 45.0)
           (-30.0 30.0)
           (-30.0 30.0)
  end
  begin
     id 14 
     name lowerneck
     direction -0.00925808 0.999011 0.0434791   
     length 1.81771   
     axis 0 0 0   XYZ
    dof rx ry rz
    limits (-20.0 45.0)
           (-30.0 30.0)
           (-30.0 30.0)
  end
  begin
     id 15 
     name upperneck
     direction 0.00451595 0.964412 -0.264365   
     length 1.80434   
     axis 0 0 0   XYZ
    dof rx ry rz
    limits (-20.0 45.0)
           (-30.0 30.0)
           (-30.0 30.0)
  end
  begin
     id 16
     name head
     direction -0.00110849 0.995756 -0.0920241  
     length 1.84006  
     axis 0 0 0   XYZ
    dof rx ry rz
    limits (-20.0 45.0)
           (-30.0 30.0)
           (-30.0 30.0)
  end
  begin
     id 17 
     name lclavicle
     direction 0.921253 0.385213 0.0538957  
     length 3.67415  
     axis 0 0 0   XYZ
    dof ry rz
    limits (-20.0 10.0)
           (0.0 20.0)
  end
  begin
     id 18 
     name lhumerus
     direction 1 -4.48961e-011 6.73441e-028   
     length 4.32712   
     axis 180 -30 -90   XYZ
    dof rx ry rz
    limits (-60.0 90.0)
           (-90.0 90.0)
           (-90.0 90.0)
  end
  begin
     id 19
     name lradius
     direction 1 -4.48985e-011 -9.53507e-028   
     length 3.28587   
     axis 180 -30 -90   XYZ
    dof rx
    limits (-10.0 170.0)
  end
  begin
     id 20
     name lwrist
     direction 1 -4.48951e-011 -4.67472e-027   
     length 1.64293   
     axis 1.65735e-015 90 90   XYZ
    dof ry
    limits (-180.0 0.0)
 end
  begin
     id 21 
     name lhand
     direction 1 -4.48946e-011 -9.34945e-027   
     length 0.433158   
     axis 5.96574e-015 90 90   XYZ
    dof rx rz
    limits (-90.0 90.0)
           (-45.0 45.0)
  end
  begin
     id 22 
     name lfingers
     direction 1 -4.48882e-011 -1.86989e-026   
     length 0.349224   
     axis 1.19315e-014 90 90   XYZ
    dof rx
    limits (0.0 90.0)
  end
  begin
     id 23
     name lthumb
     direction 0.707107 -6.3493e-011 0.707107   
     length 0.501417   
     axis -90 45 2.85299e-015   XYZ
    dof rx rz
    limits (-45.0 45.0)
           (-45.0 45.0)
  end
  begin
     id 24 
     name rclavicle
     direction -0.884378 0.46502 -0.0403866   
     length 3.50218  
     axis 0 0 0   XYZ 
    dof ry rz
    limits (-10.0 20.0)
           (-20.0 0.0)
  end
  begin
     id 25 
     name rhumerus
     direction -1 -4.48964e-011 1.58188e-027  
     length 4.29104   
     axis 180 30 90   XYZ
    dof rx ry rz
    limits (-90.0 60.0)
           (-90.0 90.0)
           (-90.0 90.0)
  end
  begin
     id 26 
     name rradius
     direction -1 -4.48978e-011 -1.9722e-027   
     length 3.2272   
     axis 180 30 90   XYZ
    dof rx
    limits (-10.0 170.0)
  end
  begin
     id 27 
     name rwrist
     direction -1 -4.48969e-011 -4.67472e-027   
     length 1.6136   
     axis 1.65735e-015 -90 -90   XYZ
    dof ry
    limits (-180.0 0.0)
  end
  begin
     id 28
     name rhand
     direction -1 -4.48846e-011 -9.34945e-027   
     length 0.543623   
     axis 5.96574e-015 -90 -90   XYZ
    dof rx rz
    limits (-90.0 90.0)
           (-45.0 45.0)
  end
  begin
     id 29
     name rfingers
     direction -1 -4.49074e-011 -1.86989e-026   
     length 0.438283   
     axis 1.19315e-014 -90 -90   XYZ
    dof rx
    limits (0.0 90.0)
  end
  begin
     id 30
     name rthumb
     direction -0.707107 -6.34834e-011 0.707107   
     length 0.629289   
     axis -90 -45 -2.85299e-015   XYZ
    dof rx rz
    limits (-45.0 45.0)
           (-45.0 45.0)
  end
:hierarchy
  begin
    root lhipjoint rhipjoint lowerback
    lhipjoint lfemur
    lfemur ltibia
    ltibia lfoot
    lfoot ltoes
    rhipjoint rfemur
    rfemur rtibia
    rtibia rfoot
    rfoot rtoes
    lowerback upperback
    upperback thorax
    thorax lowerneck lclavicle rclavicle
    lowerneck upperneck
    upperneck head
    lclavicle lhumerus
    lhumerus lradius
    lradius lwrist
    lwrist lhand lthumb
    lhand lfingers
    rclavicle rhumerus
    rhumerus rradius
    rradius rwrist
    rwrist rhand rthumb
    rhand rfingers
  end

#!OML:ASF H:\GeneralSubjects\Female5\Project 1\Capture day 1\Session 1\Female5.ASF
:FULLY-SPECIFIED
:DEGREES
19
root 18.6511 16.3197 2.17167 84.5854 -79.5556 -66.6258
lowerback 7.8675 2.78225 0.160945
upperback -10.0165 4.18731 4.99628
thorax -16.0734 2.21137 4.70314
lowerneck -19.4489 -2.84012 -3.11335
upperneck 29.9093 -2.42696 -3.47451
head 13.3265 -2.09629 -1.2886
rclavicle 1.27471e-014 4.77083e-014
rhumerus -49.0485 27.6698 -78.1954
rradius 75.7516
rwrist -12.2109
rhand -33.6101 -10.6832
rfingers 7.12502
rthumb -6.80323 -40.5539
lclavicle 1.27471e-014 4.77083e-014
lhumerus -75.1881 -10.1136 84.6416
lradius 88.7014
lwrist 4.44406
lhand -36.7107 34.3285
lfingers 7.12502
lthumb -9.79551 64.0807
rfemur 6.06203 -5.77715 39.1653
rtibia 37.3912
rfoot 5.57049 -21.7117
rtoes -29.2562
lfemur -45.3534 -21.4388 -9.80915
ltibia 19.4481
lfoot -21.9462 7.96917
ltoes -65.0406
20
root 17.7787 16.1118 2.17999 82.2017 -78.8534 -65.2687
lowerback 8.36219 2.14591 1.28341
upperback -10.0642 3.48911 4.88432
thorax -16.2914 1.74091 4.08874
lowerneck -19.2706 -2.47757 -2.17609
upperneck 30.0432 -2.36971 -3.08652
head 13.3262 -1.91531 -1.28605
rclavicle -1.05014e-014 -3.29983e-014
rhumerus -51.5981 26.9895 -80.4328
rradius 71.3392
rwrist -10.5199
rhand -31.462 -9.41139
rfingers 7.12502
rthumb -4.72928 -39.3386
lclavicle -1.05014e-014 -3.29983e-014
lhumerus -71.9604 -10.8263 85.2446
lradius 89.2109
lwrist 4.05955
lhand -36.3892 33.3491
lfingers 7.12502
lthumb -9.48539 63.1156
rfemur 4.28148 -8.81721 38.5575
rtibia 44.6958
rfoot 6.32914 -19.8445
rtoes -19.2209
lfemur -40.8156 -19.2913 -12.6901
ltibia 20.4711
lfoot -16.7096 7.19168
ltoes -58.7477
21
root 16.9761 15.8614 2.17268 84.0458 -80.2276 -68.5351
lowerback 10.0927 1.91825 0.240225
upperback -10.0716 3.01676 4.24447
thorax -17.4203 1.61667 4.03208
lowerneck -18.2565 -1.93411 -1.12381
upperneck 29.251 -2.15401 -2.48734
head 12.7703 -1.60876 -1.15663
rclavicle -1.48498e-014 -2.0276e-014
rhumerus -53.8372 25.3029 -82.2477
rradius 66.4865
rwrist -8.47369
rhand -31.3882 -12.2996
rfingers 7.12502
rthumb -4.65798 -42.2284
lclavicle -1.48498e-014 -2.0276e-014
lhumerus -68.1728 -11.4801 85.763
lradius 89.4859
lwrist 3.33062
lhand -34.9548 34.3849
lfingers 7.12502
lthumb -8.10118 64.2096
rfemur 2.18942 -10.2899 36.251
rtibia 51.5883
rfoot 3.32201 -18.1176
rtoes -26.5947
lfemur -37.7701 -16.9076 -16.9458
ltibia 23.736
lfoot -12.5969 4.45442
ltoes -45.6052
22
root 16.1768 15.6329 2.16205 84.352 -81.7219 -70.6336
lowerback 12.1922 1.61009 -0.72719
upperback -9.81662 2.38551 3.51536
thorax -18.446 1.41252 3.87346
lowerneck -17.5471 -1.36053 -0.0716647
upperneck 28.6385 -1.77638 -2.14129
head 12.3665 -1.27381 -1.11968
rclavicle 1.95189e-014 6.98231e-014
rhumerus -55.6886 22.9827 -83.2402
rradius 61.9228
rwrist -7.30702
rhand -30.5631 -13.8454
rfingers 7.12502
rthumb -3.86128 -43.7902
lclavicle 1.95189e-014 6.98231e-014
lhumerus -63.6438 -12.3058 86.2177
lradius 89.6222
lwrist 2.85109
lhand -35.3421 33.9664
lfingers 7.12502
lthumb -8.47497 63.7763
rfemur -0.9798 -11.207 34.2059
rtibia 58.0313
rfoot 0.243664 -18.0812
rtoes -31.8681
lfemur -35.3401 -17.6033 -20.1825
ltibia 29.5077
lfoot -16.7541 1.78319
ltoes -45.9509
23
root 15.4307 15.515 2.14988 16.3926 -87.738 -2.26803
lowerback 13.1091 1.17625 -7.66886
upperback -10.1217 -0.104888 1.11383
thorax -19.375 1.02165 5.70773
lowerneck -17.85 -0.802768 0.503763
upperneck 28.5166 -1.2889 -1.66178
head 12.3858 -0.925747 -0.960969
rclavicle 2.57799e-015 -1.35174e-014
rhumerus -57.7066 20.8686 -83.5989
rradius 58.0439
rwrist -7.21734
rhand -30.3863 -15.6823
rfingers 7.12502
rthumb -3.69053 -45.6301
lclavicle 2.57799e-015 -1.35174e-014
lhumerus -59.0232 -13.2513 86.4184
lradius 89.1023
lwrist 1.15346
lhand -33.455 32.0801
lfingers 7.12502
lthumb -6.65351 61.9556
rfemur -7.61268 -13.638 25.3684
rtibia 64.6291
rfoot -2.61526 -16.2604
rtoes -31.3082
lfemur -32.4467 -19.1578 -30.6827
ltibia 31.886
lfoot -17.8824 -1.68617
ltoes -44.6567
24
root 14.6696 15.4962 2.14445 -44.568 -85.7858 58.2182
lowerback 14.997 0.949265 -10.6958
upperback -10.6171 -1.63094 -0.207509
thorax -20.4421 0.711116 6.3999
lowerneck -17.9038 -0.622051 1.24683
upperneck 28.9158 -1.42338 -1.25701
head 12.5538 -0.857546 -0.963856
rclavicle -1.80273e-014 5.02925e-014
rhumerus -60.804 18.7289 -83.7599
rradius 55.0023
rwrist -8.08587
rhand -30.4265 -16.9891
rfingers 7.12502
rthumb -3.72932 -46.9363
lclavicle -1.80273e-014 5.02925e-014
lhumerus -55.0375 -15.044 86.9341
lradius 90.4785
lwrist 0.100224
lhand -32.2467 28.7762
lfingers 7.12502
lthumb -5.48692 58.6852
rfemur -14.4727 -15.1274 21.2767
rtibia 70.5999
rfoot -10.1931 -14.4164
rtoes -45.744
lfemur -26.8587 -17.4531 -36.4354
ltibia 30.2332
lfoot -16.7414 -4.83138
ltoes -43.6104
25
root 13.9284 15.5314 2.12535 -38.5054 -86.484 52.6266
lowerback 15.236 0.557984 -9.38082
upperback -10.7619 -1.92828 -0.387017
thorax -20.757 0.396505 5.56267
lowerneck -18.1636 -0.390176 1.87632
upperneck 28.8782 -1.40601 -0.901914
head 12.5932 -0.730097 -0.934956
rclavicle -3.2551e-015 -9.93923e-015
rhumerus -63.3155 16.9819 -84.0693
rradius 52.3211
rwrist -9.80567
rhand -30.566 -16.8746
rfingers 7.12502
rthumb -3.86409 -46.8193
lclavicle -3.2551e-015 -9.93923e-015
lhumerus -51.1306 -16.8069 87.0945
lradius 92.3448
lwrist -0.26017
lhand -33.9114 30.5399
lfingers 7.12502
lthumb -7.09408 60.401
rfemur -23.4843 -13.9387 23.5963
rtibia 75.7126
rfoot -12.17 -12.0994
rtoes -42.6802
lfemur -23.5777 -15.2973 -35.9256
ltibia 28.6888
lfoot -16.3844 -6.78772
ltoes -43.3183
26
root 13.1658 15.5901 2.10761 -36.4321 -87.4409 50.6097
lowerback 15.1329 0.375407 -8.26923
upperback -10.5419 -1.87081 -0.439803
thorax -20.4311 0.234958 4.84572
lowerneck -18.1016 0.00121241 3.01528
upperneck 28.2997 -0.984066 -1.51238
head 12.3455 -0.495366 -1.28508
rclavicle -8.4732e-015 3.97569e-016
rhumerus -65.1584 15.5338 -84.0918
rradius 50.0046
rwrist -11.0841
rhand -29.0814 -15.9276
rfingers 7.12502
rthumb -2.43031 -45.8935
lclavicle -8.4732e-015 3.97569e-016
lhumerus -46.6382 -18.7125 87.3804
lradius 95.2204
lwrist 1.60675
lhand -33.167 29.039
lfingers 7.12502
lthumb -6.37539 58.9231
rfemur -31.2068 -11.0671 25.6471
rtibia 77.3099
rfoot -12.5399 -12.8576
rtoes -37.6292
lfemur -19.2897 -13.3254 -35.324
ltibia 26.2038
lfoot -16.0119 -7.97517
ltoes -43.2245
